<?xml version="1.0" encoding="iso-8859-1"?>
<!-- Generator: Adobe Illustrator 19.0.0, SVG Export Plug-In . SVG Version: 6.00 Build 0)  -->
<svg version="1.1" id="Layer_1" xmlns="http://www.w3.org/2000/svg" xmlns:xlink="http://www.w3.org/1999/xlink" x="0px" y="0px"
	 viewBox="0 0 512 512" style="enable-background:new 0 0 512 512;" xml:space="preserve">
<path style="fill:#ffd8a8;" d="M498.117,316.168h-87.426c-31.506,0-57.055-25.549-57.055-57.055v-8.174
	c0-31.506,25.549-57.055,57.055-57.055h87.426c-31.506,0-57.055,25.549-57.055,57.055v8.174
	C441.063,290.619,466.611,316.168,498.117,316.168z"/>
<g>
	<path style="fill:#f08c00;" d="M498.145,330.023c-0.008,0-0.018,0-0.028,0h-87.426c-39.1,0-70.91-31.81-70.91-70.91v-8.174
		c0-39.1,31.81-70.91,70.91-70.91h87.426c7.652,0,13.855,6.204,13.855,13.855s-6.203,13.855-13.855,13.855
		c-23.821,0-43.2,19.379-43.2,43.2v8.174c0,23.819,19.379,43.2,43.2,43.2c0.004-0.001,0.01-0.001,0.014,0h0.014
		c7.652,0,13.855,6.204,13.855,13.855C512,323.819,505.797,330.023,498.145,330.023z M410.691,207.739
		c-23.821,0-43.2,19.379-43.2,43.2v8.174c0,23.819,19.379,43.2,43.2,43.2h31.23c-9.223-11.969-14.714-26.955-14.714-43.2v-8.174
		c0-16.245,5.489-31.231,14.714-43.2L410.691,207.739L410.691,207.739z"/>
	<path style="fill:#f08c00;" d="M498.145,454.255c-0.008,0-0.018,0-0.028,0h-87.426c-39.1,0-70.91-31.81-70.91-70.91v-8.174
		c0-39.1,31.81-70.91,70.91-70.91h87.426c7.652,0,13.855,6.204,13.855,13.855s-6.203,13.855-13.855,13.855
		c-23.821,0-43.2,19.379-43.2,43.2v8.174c0,23.819,19.379,43.2,43.2,43.2c0.004-0.001,0.01,0,0.014,0h0.014
		c7.652,0,13.855,6.204,13.855,13.855S505.797,454.255,498.145,454.255z M410.691,331.971c-23.821,0-43.2,19.379-43.2,43.2v8.174
		c0,23.819,19.379,43.2,43.2,43.2h31.23c-9.223-11.969-14.714-26.955-14.714-43.2v-8.174c0-16.245,5.489-31.231,14.714-43.2H410.691
		z"/>
</g>
<path style="fill:#ffd8a8;" d="M353.636,383.345v-8.174c0-31.506,25.549-57.055,57.055-57.055H70.91
	c-31.506,0-57.055,25.549-57.055,57.055v8.174c0,31.506,25.549,57.055,57.055,57.055h339.781
	C379.185,440.4,353.636,414.852,353.636,383.345z"/>
<g>
	<path style="fill:#f08c00;" d="M410.691,454.255H70.91c-39.1,0-70.91-31.81-70.91-70.91v-8.174c0-39.1,31.81-70.91,70.91-70.91
		h339.781c7.652,0,13.855,6.204,13.855,13.855s-6.203,13.855-13.855,13.855c-23.821,0-43.2,19.379-43.2,43.2v8.174
		c0,23.819,19.379,43.2,43.2,43.2c7.652,0,13.855,6.204,13.855,13.855S418.343,454.255,410.691,454.255z M70.91,331.971
		c-23.821,0-43.2,19.379-43.2,43.2v8.174c0,23.819,19.379,43.2,43.2,43.2h283.585c-9.223-11.969-14.714-26.955-14.714-43.2v-8.174
		c0-16.245,5.489-31.231,14.714-43.2H70.91z"/>
	<path style="fill:#f08c00;" d="M498.117,207.739h-87.426c-39.1,0-70.91-31.81-70.91-70.91v-8.174c0-39.1,31.81-70.91,70.91-70.91
		c7.652,0,13.855,6.204,13.855,13.855s-6.203,13.855-13.855,13.855c-23.821,0-43.2,19.379-43.2,43.2v8.174
		c0,23.82,19.379,43.2,43.2,43.2h31.23c-9.223-11.969-14.714-26.955-14.714-43.2v-8.174c0-39.1,31.81-70.91,70.91-70.91
		c7.652,0,13.855,6.204,13.855,13.855s-6.203,13.855-13.855,13.855c-23.821,0-43.2,19.379-43.2,43.2v8.174
		c0,23.82,19.379,43.2,43.2,43.2c7.652,0,13.855,6.204,13.855,13.855S505.769,207.739,498.117,207.739z"/>
	<path style="fill:#f08c00;" d="M105.813,282.747c-3.223,0.001-6.434-0.881-9.312-2.632c-5.387-3.28-8.601-9.002-8.601-15.308
		V121.443c0-7.651,6.203-13.855,13.855-13.855h98.812c7.652,0,13.855,6.204,13.855,13.855v72.444
		c0,7.651-6.203,13.855-13.855,13.855s-13.855-6.204-13.855-13.855v-58.589h-71.104v113.435l27.323-14.117
		c5.155-2.663,11.303-2.66,16.451-0.003l27.335,14.122c0.215-7.464,6.333-13.448,13.849-13.448c7.652,0,13.855,6.204,13.855,13.855
		v15.663c0,6.305-3.216,12.029-8.601,15.308c-5.387,3.279-11.947,3.509-17.55,0.615l-37.111-19.175l-37.111,19.174
		C111.44,282.078,108.622,282.747,105.813,282.747z"/>
	<path style="fill:#f08c00;" d="M484.261,330.023H57.053C31.211,330.023,0,298.394,0,259.113v-8.174c0-39.1,31.81-70.91,70.91-70.91
		h30.844c7.652,0,13.855,6.204,13.855,13.855s-6.203,13.855-13.855,13.855H70.91c-23.821,0-43.2,19.379-43.2,43.2v8.174
		c0,24.957,20.591,43.2,29.343,43.2h383.64c-8.122-11.946-13.486-26.916-13.486-43.2v-8.174c0-16.284,5.365-31.254,13.486-43.2
		H200.566c-7.652,0-13.855-6.204-13.855-13.855s6.203-13.855,13.855-13.855h283.695c7.652,0,13.855,6.204,13.855,13.855
		s-6.203,13.855-13.855,13.855c-8.752,0-29.344,18.243-29.344,43.2v8.174c0,24.957,20.591,43.2,29.344,43.2
		c7.652,0,13.855,6.204,13.855,13.855C498.116,323.819,491.913,330.023,484.261,330.023z"/>
</g>
<path style="fill:#ffd8a8;" d="M353.636,136.829v-8.174c0-31.506,25.549-57.055,57.055-57.055H70.91
	c-31.506,0-57.055,25.549-57.055,57.055v8.174c0,31.506,25.549,57.055,57.055,57.055h30.844v-72.441h98.812v72.441h210.125
	C379.185,193.884,353.636,168.335,353.636,136.829z"/>
<path style="fill:#f08c00;" d="M410.691,207.739H200.566c-7.652,0-13.855-6.204-13.855-13.855v-58.586h-71.102v58.586
	c0,7.651-6.203,13.855-13.855,13.855H70.91c-39.1,0-70.91-31.81-70.91-70.908v-8.174c0-39.1,31.81-70.91,70.91-70.91h339.781
	c7.652,0,13.855,6.204,13.855,13.855s-6.203,13.855-13.855,13.855c-23.821,0-43.2,19.379-43.2,43.2v8.174
	c0,23.82,19.379,43.2,43.2,43.2c7.652,0,13.855,6.204,13.855,13.855S418.343,207.739,410.691,207.739z M214.421,180.029h140.074
	c-9.223-11.969-14.714-26.955-14.714-43.2v-8.174c0-16.245,5.489-31.231,14.714-43.2H70.91c-23.821,0-43.2,19.38-43.2,43.2v8.174
	c0,23.82,19.379,43.2,43.2,43.2h16.989v-58.586c0-7.651,6.203-13.855,13.855-13.855h98.812c7.652,0,13.855,6.204,13.855,13.855
	V180.029z"/>
<g>
</g>
<g>
</g>
<g>
</g>
<g>
</g>
<g>
</g>
<g>
</g>
<g>
</g>
<g>
</g>
<g>
</g>
<g>
</g>
<g>
</g>
<g>
</g>
<g>
</g>
<g>
</g>
<g>
</g>
</svg>
